<svg width="13" height="13" viewBox="0 0 13 13" fill="none" xmlns="http://www.w3.org/2000/svg">
<g clip-path="url(#clip0_1_1521)">
<path d="M1.73433 3.74901C1.8 3.74894 1.86504 3.76185 1.9257 3.78699C1.98636 3.81213 2.04146 3.84901 2.08783 3.89551L6.23433 8.04351L10.3808 3.89551C10.427 3.84776 10.4821 3.80967 10.5431 3.78346C10.6041 3.75726 10.6697 3.74346 10.7361 3.74289C10.8025 3.74231 10.8684 3.75496 10.9298 3.7801C10.9913 3.80524 11.0471 3.84237 11.094 3.88931C11.141 3.93626 11.1781 3.99209 11.2032 4.05353C11.2284 4.11498 11.241 4.18082 11.2405 4.24721C11.2399 4.3136 11.2261 4.37921 11.1999 4.44021C11.1737 4.50122 11.1356 4.55639 11.0878 4.60251L6.58783 9.10451C6.49225 9.19474 6.36578 9.245 6.23433 9.245C6.10289 9.245 5.97642 9.19474 5.88083 9.10451L1.38083 4.60251C1.31093 4.53259 1.26333 4.4435 1.24404 4.34653C1.22476 4.24955 1.23466 4.14903 1.2725 4.05768C1.31033 3.96633 1.3744 3.88825 1.4566 3.83331C1.53881 3.77837 1.63546 3.74903 1.73433 3.74901Z" fill="#8E8E8E"/>
</g>
<defs>
<clipPath id="clip0_1_1521">
<rect width="12" height="12" fill="white" transform="matrix(-1 0 0 -1 12.2344 12.5)"/>
</clipPath>
</defs>
</svg>
