<svg width="13" height="13" viewBox="0 0 13 13" fill="none" xmlns="http://www.w3.org/2000/svg">
<path d="M1.14954 4.00098H11.1" stroke="#8E8E8E" stroke-linejoin="round"/>
<path d="M6.87695 1.50049L8.30595 4.00099" stroke="#8E8E8E" stroke-linecap="round" stroke-linejoin="round"/>
<path d="M3.72852 1.55505L5.12602 4.00105" stroke="#8E8E8E" stroke-linecap="round" stroke-linejoin="round"/>
<path d="M1.125 6.5005V8.225C1.125 9.6495 1.474 10.228 1.928 10.6975C2.398 11.1515 2.977 11.501 4.401 11.501H7.849C9.273 11.501 9.852 11.1515 10.322 10.6975C10.776 10.228 11.125 9.6495 11.125 8.225V4.776C11.125 3.352 10.776 2.773 10.322 2.3035C9.852 1.8495 9.273 1.5 7.849 1.5H4.401C2.977 1.5 2.398 1.8495 1.928 2.3035C1.474 2.773 1.125 3.352 1.125 4.776V6.5005Z" stroke="#8E8E8E" stroke-linecap="round" stroke-linejoin="round"/>
<path fill-rule="evenodd" clip-rule="evenodd" d="M5.00654 9.33202C4.93748 9.29215 4.88013 9.23478 4.84028 9.16571C4.80043 9.09663 4.77948 9.01827 4.77954 8.93852V6.31502C4.77945 6.23517 4.80039 6.1567 4.84027 6.08752C4.88014 6.01834 4.93754 5.96088 5.00668 5.92094C5.07583 5.88099 5.15427 5.85997 5.23412 5.85999C5.31398 5.86 5.39241 5.88105 5.46154 5.92102L7.73404 7.23302C7.8032 7.27289 7.86064 7.33028 7.90057 7.3994C7.94051 7.46852 7.96154 7.54694 7.96154 7.62677C7.96154 7.7066 7.94051 7.78502 7.90057 7.85414C7.86064 7.92327 7.8032 7.98065 7.73404 8.02052L5.46154 9.33252C5.39237 9.37246 5.31391 9.39348 5.23404 9.39348C5.15417 9.39348 5.07571 9.37246 5.00654 9.33252V9.33202Z" fill="#8E8E8E"/>
</svg>
