<svg width="13" height="13" viewBox="0 0 13 13" fill="none" xmlns="http://www.w3.org/2000/svg">
<path d="M5.52238 2.39854L6.42188 1.49854L7.32137 2.39854C7.47049 2.54746 7.67263 2.63109 7.88338 2.63104H10.5129C10.754 2.63104 10.9852 2.7268 11.1556 2.89728C11.3261 3.06775 11.4219 3.29895 11.4219 3.54004V10.592C11.4219 10.8331 11.3261 11.0643 11.1556 11.2348C10.9852 11.4053 10.754 11.501 10.5129 11.501H2.33088C2.08979 11.501 1.85859 11.4053 1.68811 11.2348C1.51764 11.0643 1.42188 10.8331 1.42188 10.592V3.54004C1.42188 3.29895 1.51764 3.06775 1.68811 2.89728C1.85859 2.7268 2.08979 2.63104 2.33088 2.63104H4.96088C5.17145 2.63096 5.37339 2.54734 5.52238 2.39854Z" stroke="#8E8E8E" stroke-linecap="round" stroke-linejoin="round"/>
<path d="M9.72082 11.501V11.2C9.72082 10.6764 9.51287 10.1742 9.14268 9.80396C8.7725 9.43368 8.27041 9.2256 7.74682 9.22546H5.16932C4.64565 9.22546 4.14343 9.43349 3.77314 9.80378C3.40285 10.1741 3.19482 10.6763 3.19482 11.2V11.5015" stroke="#8E8E8E" stroke-linecap="round" stroke-linejoin="round"/>
<path d="M6.45793 7.81552C7.43989 7.81552 8.23593 7.01948 8.23593 6.03752C8.23593 5.05556 7.43989 4.25952 6.45793 4.25952C5.47597 4.25952 4.67993 5.05556 4.67993 6.03752C4.67993 7.01948 5.47597 7.81552 6.45793 7.81552Z" stroke="#8E8E8E" stroke-linecap="round" stroke-linejoin="round"/>
</svg>
