<svg width="32" height="33" viewBox="0 0 32 33" fill="none" xmlns="http://www.w3.org/2000/svg">
<path opacity="0.0833333" d="M22.2086 3.8264L19.1686 9.09183C18.9035 9.55099 19.0608 10.1381 19.52 10.4032C19.9791 10.6683 20.5663 10.511 20.8314 10.0518L23.8714 4.7864C24.1365 4.32724 23.9791 3.74011 23.52 3.47502C23.0608 3.20992 22.4737 3.36724 22.2086 3.8264Z" fill="#555555"/>
<path opacity="0.166667" d="M27.7136 8.62856L22.4482 11.6686C21.989 11.9337 21.8317 12.5208 22.0968 12.9799C22.3619 13.4391 22.949 13.5964 23.4082 13.3313L28.6736 10.2913C29.1328 10.0262 29.2901 9.4391 29.025 8.97994C28.7599 8.52078 28.1728 8.36346 27.7136 8.62856Z" fill="#555555"/>
<path opacity="0.25" d="M30.08 15.54H24C23.4698 15.54 23.04 15.9698 23.04 16.5C23.04 17.0302 23.4698 17.46 24 17.46H30.08C30.6102 17.46 31.04 17.0302 31.04 16.5C31.04 15.9698 30.6102 15.54 30.08 15.54Z" fill="#555555"/>
<path opacity="0.333333" d="M28.6736 22.7086L23.4082 19.6686C22.949 19.4035 22.3619 19.5608 22.0968 20.02C21.8317 20.4791 21.989 21.0663 22.4482 21.3314L27.7136 24.3714C28.1728 24.6365 28.7599 24.4791 29.025 24.02C29.2901 23.5608 29.1328 22.9737 28.6736 22.7086Z" fill="#555555"/>
<path opacity="0.416667" d="M23.8714 28.2136L20.8314 22.9482C20.5663 22.489 19.9792 22.3317 19.5201 22.5968C19.0609 22.8619 18.9036 23.449 19.1687 23.9082L22.2087 29.1736C22.4738 29.6328 23.0609 29.7901 23.5201 29.525C23.9792 29.2599 24.1365 28.6728 23.8714 28.2136Z" fill="#555555"/>
<path opacity="0.5" d="M16.96 30.58V24.5C16.96 23.9698 16.5302 23.54 16 23.54C15.4698 23.54 15.04 23.9698 15.04 24.5V30.58C15.04 31.1102 15.4698 31.54 16 31.54C16.5302 31.54 16.96 31.1102 16.96 30.58Z" fill="#555555"/>
<path opacity="0.583333" d="M9.79128 29.1736L12.8313 23.9082C13.0964 23.449 12.9391 22.8619 12.4799 22.5968C12.0207 22.3317 11.4336 22.489 11.1685 22.9482L8.12851 28.2136C7.86341 28.6728 8.02073 29.2599 8.4799 29.525C8.93906 29.7901 9.52618 29.6328 9.79128 29.1736Z" fill="#555555"/>
<path opacity="0.666667" d="M4.28624 24.3714L9.55167 21.3314C10.0108 21.0663 10.1682 20.4792 9.90306 20.0201C9.63796 19.5609 9.05083 19.4036 8.59167 19.6687L3.32624 22.7087C2.86708 22.9738 2.70976 23.5609 2.97486 24.0201C3.23995 24.4792 3.82708 24.6365 4.28624 24.3714Z" fill="#555555"/>
<path opacity="0.75" d="M1.91996 17.46H7.99996C8.53015 17.46 8.95996 17.0302 8.95996 16.5C8.95996 15.9698 8.53015 15.54 7.99996 15.54H1.91996C1.38977 15.54 0.959961 15.9698 0.959961 16.5C0.959961 17.0302 1.38977 17.46 1.91996 17.46Z" fill="#555555"/>
<path opacity="0.833333" d="M3.3264 10.2913L8.59183 13.3313C9.05099 13.5964 9.63812 13.4391 9.90322 12.9799C10.1683 12.5207 10.011 11.9336 9.55183 11.6685L4.2864 8.62851C3.82724 8.36341 3.24011 8.52073 2.97502 8.9799C2.70992 9.43906 2.86724 10.0262 3.3264 10.2913Z" fill="#555555"/>
<path opacity="0.916667" d="M8.12856 4.78624L11.1686 10.0517C11.4337 10.5108 12.0208 10.6682 12.4799 10.4031C12.9391 10.138 13.0964 9.55083 12.8313 9.09167L9.79133 3.82624C9.52623 3.36708 8.9391 3.20976 8.47994 3.47486C8.02078 3.73995 7.86346 4.32708 8.12856 4.78624Z" fill="#555555"/>
</svg>
